<svg id="Capa_1" data-name="Capa 1" xmlns="http://www.w3.org/2000/svg" xmlns:xlink="http://www.w3.org/1999/xlink" width="171.77" height="43" viewBox="0 0 171.77 43"><defs><style>.cls-1{fill:url(#Безымянный_градиент_25);}.cls-2{fill:#374047;}</style><linearGradient id="Безымянный_градиент_25" x1="170.11" y1="256" x2="213.11" y2="213" gradientUnits="userSpaceOnUse"><stop offset="0" stop-color="#00dfc8"/><stop offset="0.59" stop-color="#18d3ca"/><stop offset="1" stop-color="#2cc9cc"/></linearGradient></defs><title>logo vw</title><path class="cls-1" d="M170.11,213v43h43V213Zm40,40H174.86l20.54-20.53-.15-.15h.11v-3H184.62v-3.17h15.17v16.67h3V223.15H181.62v9.17h9.68l-18.19,18.19V216h37Z" transform="translate(-170.11 -213)"/><path class="cls-2" d="M226,222.12h2l2.77,5.58,2.77-5.58h1.91v9.8h-1.91v-6.44l-2.11,4.35H230l-2.11-4.35v6.44H226Z" transform="translate(-170.11 -213)"/><path class="cls-2" d="M241.89,232a3.68,3.68,0,0,1-2.85-1.12,5,5,0,0,1-1-3.47v-1.12a4.51,4.51,0,0,1,1-3.24,4.24,4.24,0,0,1,5.7,0,4.55,4.55,0,0,1,1,3.24v1.12a5,5,0,0,1-1,3.47A3.71,3.71,0,0,1,241.89,232Zm0-1.72a2.22,2.22,0,0,0,.79-.14,1.24,1.24,0,0,0,.59-.48,2.56,2.56,0,0,0,.37-.88,5.89,5.89,0,0,0,.14-1.37v-1.12a3.16,3.16,0,0,0-.51-2,1.7,1.7,0,0,0-1.38-.6,1.72,1.72,0,0,0-1.39.6,3.17,3.17,0,0,0-.5,2v1.12a6,6,0,0,0,.13,1.37,2.56,2.56,0,0,0,.37.88,1.24,1.24,0,0,0,.59.48A2.2,2.2,0,0,0,241.89,230.32Z" transform="translate(-170.11 -213)"/><path class="cls-2" d="M249.68,228a2.77,2.77,0,0,1-1.36-1.09,3.21,3.21,0,0,1-.46-1.71,3.17,3.17,0,0,1,.24-1.25,2.43,2.43,0,0,1,.7-1,3.26,3.26,0,0,1,1.18-.64,5.4,5.4,0,0,1,1.65-.22h3.6v9.8h-2v-3.59h-1.67l-1.89,3.59h-2.13Zm3.55-1.36V223.8h-1.6a2,2,0,0,0-1.34.37,1.33,1.33,0,0,0-.42,1.05,1.36,1.36,0,0,0,.42,1.06,2,2,0,0,0,1.34.37Z" transform="translate(-170.11 -213)"/><path class="cls-2" d="M269.14,231.92h-6.86v-9.8h2v8.12h3.36v-8.12h2v8.12H271v3.5h-1.81Z" transform="translate(-170.11 -213)"/><path class="cls-2" d="M272.92,222.12h2v6.58l3.75-6.58h2v9.8h-2v-6.58l-3.8,6.58h-2Z" transform="translate(-170.11 -213)"/><path class="cls-2" d="M287.23,231.2a4.13,4.13,0,0,1-3.06-1,4.19,4.19,0,0,1-1-3.09v-.47a3.75,3.75,0,0,1,1-2.84,4.21,4.21,0,0,1,3.06-1v-.71h2v.71a4.25,4.25,0,0,1,3.07,1,3.79,3.79,0,0,1,1,2.84v.47a4.23,4.23,0,0,1-1,3.09,4.17,4.17,0,0,1-3.07,1v.72h-2Zm-2.06-4.08a4.52,4.52,0,0,0,.12,1.14,1.7,1.7,0,0,0,.35.74,1.37,1.37,0,0,0,.64.4,3.28,3.28,0,0,0,1,.12v-5a2.17,2.17,0,0,0-1.59.48,2.34,2.34,0,0,0-.47,1.65Zm6.11-.48a2.34,2.34,0,0,0-.47-1.65,2.16,2.16,0,0,0-1.59-.48v5a3.28,3.28,0,0,0,.95-.12,1.32,1.32,0,0,0,.64-.4,1.83,1.83,0,0,0,.36-.74,5.11,5.11,0,0,0,.11-1.14Z" transform="translate(-170.11 -213)"/><path class="cls-2" d="M295.74,222.12h3.56a4.14,4.14,0,0,1,2.9.88,3.47,3.47,0,0,1,0,4.77,4.14,4.14,0,0,1-2.9.88h-1.55v3.27h-2ZM299.3,227a2.08,2.08,0,0,0,1.42-.39,1.57,1.57,0,0,0,.43-1.19,1.6,1.6,0,0,0-.43-1.2,2.08,2.08,0,0,0-1.42-.39h-1.55V227Z" transform="translate(-170.11 -213)"/><path class="cls-2" d="M309,232a3.68,3.68,0,0,1-2.85-1.12,5,5,0,0,1-1.05-3.47v-1.12a4.51,4.51,0,0,1,1.05-3.24,4.23,4.23,0,0,1,5.69,0,4.51,4.51,0,0,1,1,3.24v1.12a5,5,0,0,1-1,3.47A3.67,3.67,0,0,1,309,232Zm0-1.72a2.26,2.26,0,0,0,.79-.14,1.29,1.29,0,0,0,.59-.48,2.56,2.56,0,0,0,.37-.88,5.89,5.89,0,0,0,.14-1.37v-1.12a3.16,3.16,0,0,0-.51-2,1.7,1.7,0,0,0-1.38-.6,1.72,1.72,0,0,0-1.39.6,3.17,3.17,0,0,0-.5,2v1.12a6,6,0,0,0,.13,1.37,2.56,2.56,0,0,0,.37.88,1.24,1.24,0,0,0,.59.48A2.2,2.2,0,0,0,309,230.32Z" transform="translate(-170.11 -213)"/><path class="cls-2" d="M315.34,222.12H319a4.27,4.27,0,0,1,2.57.67,2.27,2.27,0,0,1,.92,1.94,2.12,2.12,0,0,1-.36,1.25,2.75,2.75,0,0,1-.9.83,2.55,2.55,0,0,1,1.14.82,2.49,2.49,0,0,1,.41,1.5,2.87,2.87,0,0,1-.21,1.1,2.25,2.25,0,0,1-.66.88,3.4,3.4,0,0,1-1.14.59,5.78,5.78,0,0,1-1.67.22h-3.77Zm3.67,4a1.7,1.7,0,0,0,1.13-.31,1,1,0,0,0,.36-.81,1.1,1.1,0,0,0-.35-.86,1.71,1.71,0,0,0-1.14-.31h-1.66v2.29Zm0,4.15a2.15,2.15,0,0,0,1.38-.34,1.15,1.15,0,0,0,.4-.94,1.19,1.19,0,0,0-.39-1,2.17,2.17,0,0,0-1.39-.33h-1.66v2.58Z" transform="translate(-170.11 -213)"/><path class="cls-2" d="M327.43,222.12h2.1l3.4,9.8h-2.14l-.66-1.95h-3.36l-.67,1.95H324Zm2.14,6.17-1.12-3.68-1.14,3.68Z" transform="translate(-170.11 -213)"/><path class="cls-2" d="M336.34,228a2.77,2.77,0,0,1-1.36-1.09,3.13,3.13,0,0,1-.46-1.71,3.35,3.35,0,0,1,.23-1.25,2.55,2.55,0,0,1,.71-1,3.26,3.26,0,0,1,1.18-.64,5.36,5.36,0,0,1,1.65-.22h3.6v9.8h-2v-3.59h-1.67l-1.89,3.59H334.2Zm3.55-1.36V223.8h-1.6a2,2,0,0,0-1.34.37,1.33,1.33,0,0,0-.42,1.05,1.36,1.36,0,0,0,.42,1.06,2,2,0,0,0,1.34.37Z" transform="translate(-170.11 -213)"/><path class="cls-2" d="M226,238.92h2v3.94h.88l2.49-3.94h2.25l-3.09,4.68,3.37,5.12h-2.36l-2.66-4.18H228v4.18h-2Z" transform="translate(-170.11 -213)"/><path class="cls-2" d="M238.53,238.92h2.1l3.4,9.8h-2.14l-.66-1.95h-3.36l-.67,1.95h-2.08Zm2.14,6.17-1.12-3.68-1.14,3.68Z" transform="translate(-170.11 -213)"/><path class="cls-2" d="M245.9,238.92h3.56a4.14,4.14,0,0,1,2.9.88,3.47,3.47,0,0,1,0,4.77,4.14,4.14,0,0,1-2.9.88h-1.55v3.27h-2Zm3.56,4.85a2.08,2.08,0,0,0,1.42-.39,1.54,1.54,0,0,0,.43-1.19,1.56,1.56,0,0,0-.43-1.2,2.08,2.08,0,0,0-1.42-.39h-1.55v3.17Z" transform="translate(-170.11 -213)"/><path class="cls-2" d="M255.56,238.92h2v3.54h1.55a5.75,5.75,0,0,1,1.7.22,3.27,3.27,0,0,1,1.2.64,2.69,2.69,0,0,1,.71,1,3.35,3.35,0,0,1,.24,1.28,3.28,3.28,0,0,1-.24,1.28,2.78,2.78,0,0,1-.71,1,3.42,3.42,0,0,1-1.2.63,5.73,5.73,0,0,1-1.7.23h-3.56Zm3.56,8.12a2.14,2.14,0,0,0,1.42-.38,1.34,1.34,0,0,0,.43-1.07,1.36,1.36,0,0,0-.43-1.08,2.14,2.14,0,0,0-1.42-.37h-1.55V247Z" transform="translate(-170.11 -213)"/><path class="cls-2" d="M265.22,238.92h6.37v1.68h-4.36v2.24h3.85v1.68h-3.85V247h4.36v1.68h-6.37Z" transform="translate(-170.11 -213)"/><path class="cls-2" d="M274,238.92h3.56a4.14,4.14,0,0,1,2.9.88,3.47,3.47,0,0,1,0,4.77,4.14,4.14,0,0,1-2.9.88H276v3.27h-2Zm3.56,4.85a2.08,2.08,0,0,0,1.42-.39,1.54,1.54,0,0,0,.43-1.19A1.56,1.56,0,0,0,279,241a2.08,2.08,0,0,0-1.42-.39H276v3.17Z" transform="translate(-170.11 -213)"/><path class="cls-2" d="M285.34,238.92h2.1l3.4,9.8H288.7l-.66-1.95h-3.36l-.67,1.95h-2.07Zm2.14,6.17-1.12-3.68-1.13,3.68Z" transform="translate(-170.11 -213)"/></svg>